<svg version="1.1" id="Layer_1" xmlns="http://www.w3.org/2000/svg" xmlns:xlink="http://www.w3.org/1999/xlink" x="0px" y="0px" viewBox="0 0 500 500" style="width: 150px;" xml:space="preserve" data-imageid="team-building-68" imageName="Team Building" class="illustrations_image">
<style type="text/css">
	.st0_team-building-68{fill:#FFFFFF;}
	.st1_team-building-68{fill:#231F20;}
	.st2_team-building-68{fill:#68E1FD;}
</style>
<g id="Character_Male_Right_Hand_team-building-68">
	<path class="st0_team-building-68" d="M335.7,157l-56.2,13.7c-1.5,1-11.8,1.7-15.8,0.2s-3.6-4.9-2.8-7.2s9.9-2.9,9.9-2.9s-4-1.8-3.8-3.6&#10;&#9;&#9;s7.3,2.5,7.3,2.5l53.6-16.3L335.7,157L335.7,157z"/>
	<path class="st1_team-building-68" d="M270.9,172.4c-2.5,0.1-5-0.2-7.4-0.9c-2.4-0.9-4.9-3-3.2-8.1c0.6-1.9,5.2-2.8,8.2-3.2&#10;&#9;&#9;c-1.2-0.8-2.4-1.9-2.2-3.2c0-0.4,0.3-0.7,0.6-0.9c1.4-0.6,5.2,1.4,7.5,2.7l53.3-16.2c0.3-0.1,0.6,0,0.8,0.3l7.8,13.5&#10;&#9;&#9;c0.1,0.2,0.1,0.4,0,0.6c-0.1,0.2-0.3,0.4-0.5,0.4l-56.1,13.7C278.5,172,274.7,172.4,270.9,172.4L270.9,172.4z M267.6,157.5&#10;&#9;&#9;c0.2,0.7,1.9,1.9,3.4,2.6c0.3,0.1,0.5,0.4,0.4,0.8c-0.1,0.3-0.3,0.6-0.6,0.6c-4.2,0.3-8.9,1.3-9.3,2.4c-1.1,3.3-0.3,5.3,2.4,6.3&#10;&#9;&#9;c4,1.5,14,0.6,15.2-0.1c0.1,0,0.1-0.1,0.2-0.1l55.3-13.5l-7-12.2l-53.1,16.1c-0.2,0.1-0.4,0-0.6-0.1&#10;&#9;&#9;C271.3,158.8,268.5,157.5,267.6,157.5L267.6,157.5z"/>
	<path class="st0_team-building-68" d="M270.8,160.8c0,0-1.6,4.8,2.7,6"/>
	<path class="st1_team-building-68" d="M273.5,167.4c-0.1,0-0.1,0-0.2,0c-1.2-0.3-2.3-1.1-2.9-2.2c-0.6-1.5-0.7-3.1-0.2-4.6c0.2-0.4,0.6-0.5,0.9-0.3&#10;&#9;&#9;c0.3,0.1,0.5,0.5,0.4,0.8c-0.4,1.2-0.3,2.4,0.1,3.5c0.4,0.8,1.2,1.3,2.1,1.5c0.4,0.1,0.6,0.5,0.5,0.8c0,0,0,0,0,0&#10;&#9;&#9;C274,167.3,273.8,167.5,273.5,167.4L273.5,167.4z"/>
</g>
<g id="Character_Female_Left_Hand_team-building-68">
	<path class="st0_team-building-68" d="M213.6,173c0.7,0.4,1.3,0.9,1.8,1.5c1.4,1.7,1.9,3.9,1.4,6c-0.7,3.1-4.6,4.1-7.2,5.5c-3.1,1.7-6.2,3.2-9.4,4.7&#10;&#9;&#9;c-6.5,3-13.1,5.8-19.8,8.4c-5.5,2.1-11,4.2-16.6,6c-1.8,0.6-5.8,2.6-7.8,2.1c-2.3-0.6-7-12.9,3.9-14.8c2.1-0.4,4.3-1.6,6.3-2.4&#10;&#9;&#9;c5.1-1.9,10.2-3.9,15.2-5.9c5.9-2.4,11.9-4.8,17.7-7.3C203.3,175,209.2,170.6,213.6,173L213.6,173z"/>
	<path class="st1_team-building-68" d="M156.8,207.9c-0.3,0-0.7,0-1-0.1c-1.7-0.5-3.7-4.7-3.5-8.5c0.1-2.4,1.3-6.6,7.5-7.7c1.4-0.3,2.8-0.8,4.2-1.5&#10;&#9;&#9;c0.7-0.3,1.4-0.6,2-0.9c5.2-2,10.4-4,15.2-5.9c7.1-2.8,12.6-5.1,17.7-7.3c0.9-0.4,1.9-0.9,2.9-1.4c3.8-1.9,8.4-4.4,12.2-2.2l0,0&#10;&#9;&#9;c0.8,0.4,1.4,1,2,1.7c1.5,1.8,2.1,4.3,1.5,6.6c-0.6,2.8-3.4,4-5.8,5.1c-0.6,0.3-1.2,0.6-1.8,0.9c-2.8,1.5-5.9,3.1-9.5,4.7&#10;&#9;&#9;c-6,2.8-12.5,5.6-19.8,8.4c-6.3,2.4-11.6,4.3-16.7,6c-0.4,0.1-1,0.4-1.6,0.6C160.6,207.2,158.7,207.7,156.8,207.9L156.8,207.9z&#10;&#9;&#9; M210.6,173c-2.6,0-5.6,1.5-8.2,2.9c-1.1,0.6-2.1,1.1-3,1.5c-5.1,2.2-10.6,4.4-17.7,7.3c-4.9,1.9-10,3.9-15.2,5.9&#10;&#9;&#9;c-0.6,0.2-1.3,0.5-1.9,0.8c-1.4,0.7-2.9,1.3-4.5,1.6c-5,0.9-6.2,3.9-6.3,6.4c-0.2,3.6,1.8,6.8,2.5,7c1.3,0.4,3.9-0.7,5.7-1.4&#10;&#9;&#9;c0.7-0.3,1.2-0.5,1.7-0.6c5-1.6,10.3-3.5,16.6-6c7.3-2.8,13.7-5.5,19.7-8.3c3.5-1.6,6.6-3.2,9.4-4.7c0.6-0.3,1.2-0.6,1.9-0.9&#10;&#9;&#9;c2.2-1,4.5-2,5-4.1c0.4-1.9,0-3.8-1.2-5.4c-0.4-0.6-1-1-1.6-1.4l0,0C212.5,173.1,211.6,172.9,210.6,173L210.6,173z"/>
</g>
<g id="Gear_team-building-68">
	<path class="st0_team-building-68" d="M290.3,171.4c-0.8,1.2-1.9,2.1-3.3,2.5c-1.9,0.9-3.9,1.7-5.9,2.5c-0.8,0.4-1.4,1.1-1.6,2&#10;&#9;&#9;c-0.5,2.1-0.8,4.2-1.3,6.3c-0.5,1.9,0.1,3.9,1.6,5.1c1.5,1.4,2.9,2.8,4.3,4.2s1.4,2.3,0.5,3.9c-1.5,2.6-3.1,5.1-4.8,7.6&#10;&#9;&#9;c-1.5,2.2-2.4,2.4-5,1.5l-0.2-0.1c-1.9-0.8-3.9-1.5-5.8-2.3c-1.2-0.6-2.6-0.5-3.7,0.3c-1.9,1.2-3.7,2.5-5.6,3.7&#10;&#9;&#9;c-0.9,0.6-1.4,1.5-1.5,2.6c-0.1,0.6-0.1,1.3-0.1,1.9c0,2.1,0,4.1,0,6.2c0,1.1-0.7,2.1-1.7,2.4c-0.4,0.2-0.8,0.4-1.2,0.5&#10;&#9;&#9;c-3.2,0.7-6.3,1.3-9.5,1.9c-0.9,0.2-1.8-0.2-2.2-1c-0.5-0.7-1-1.5-1.4-2.4c-0.7-1.6-1.3-3.3-2-4.9c-0.5-1.4-1.7-2.3-3.1-2.6l-4.4-1&#10;&#9;&#9;c-3.8-0.8-4.4-0.6-7.1,2.1c-1.2,1.3-2.5,2.6-3.8,3.8c-1,1.1-2.7,1.3-3.9,0.4c-2.6-1.7-5.3-3.4-7.8-5.1c-1.8-1.2-2.1-2.2-1.3-4.3&#10;&#9;&#9;s1.5-3.9,2.4-5.8c0.7-1.5,0.6-3.3-0.4-4.6c-1-1.5-2.1-2.9-3.1-4.5c-0.8-1.6-2.6-2.6-4.4-2.4h-0.5h-6.3c-1.1,0-2.1-0.6-2.4-1.7&#10;&#9;&#9;c-0.2-0.4-0.4-0.9-0.5-1.3c-0.6-3-1.2-6-1.8-9c-0.3-1.3,0.4-2.7,1.6-3.2c0.8-0.4,1.7-0.8,2.6-1.2c1.4-0.6,2.8-1.1,4.2-1.7&#10;&#9;&#9;c1.2-0.5,2.1-1.5,2.4-2.8c0.5-2.3,0.9-4.7,1.3-7.1c0.2-0.9-0.1-1.8-0.7-2.5c-0.7-0.8-1.4-1.6-2.2-2.4c-1.1-1.1-2.2-2.1-3.2-3.2&#10;&#9;&#9;c-1.5-1.6-1.6-2.8-0.4-4.7c1.6-2.5,3.3-5.1,5-7.5c0.8-1.4,2.6-2,4.1-1.2c2.2,0.9,4.3,1.8,6.5,2.6c1.3,0.6,2.8,0.4,3.9-0.5&#10;&#9;&#9;c1.9-1.4,3.8-2.6,5.7-4c0.9-0.6,1.5-1.6,1.5-2.7c0.1-0.8,0.1-1.7,0.1-2.5c0-1.8-0.1-3.6,0-5.4c0-1.3,0.9-2.5,2.2-2.8&#10;&#9;&#9;c3.3-0.7,6.6-1.3,10-1.9c1.3-0.3,2.5,0.4,3,1.6c0.6,1.1,1.1,2.3,1.6,3.4c0.6,1.3,1.2,2.7,1.8,4c0.3,0.8,1,1.4,1.9,1.6&#10;&#9;&#9;c2.3,0.5,4.5,0.9,6.8,1.4c1.6,0.4,3.3-0.1,4.4-1.4c1.5-1.6,3.2-3.2,4.8-4.8c0.8-0.9,2.1-1.1,3.1-0.6c3.5,1.6,6.7,3.7,9.5,6.3&#10;&#9;&#9;c0.4,0.5,0.6,1.1,0.6,1.7c-0.1,0.8-0.3,1.7-0.6,2.4c-0.8,2-1.6,4-2.4,6c-0.4,0.9-0.4,2,0.1,2.8c1.5,2.3,3.1,4.6,4.8,6.7&#10;&#9;&#9;c0.5,0.5,1.1,0.8,1.8,0.9c0.9,0.1,1.9,0.1,2.8,0.1c1.8,0,3.5-0.1,5.3,0c1.5,0.1,2.7,1.1,3,2.6c0.3,1.1,0.5,2.3,0.8,3.5&#10;&#9;&#9;c0.4,2.2,0.8,4.5,1.2,6.7l-0.1,0.8L290.3,171.4z M238,195.1c11.1,1.7,21.4-5.9,23.2-16.9c1.9-12.1-7.3-21.9-16.7-23.4&#10;&#9;&#9;c-11.1-1.9-21.6,5.7-23.5,16.8c0,0.1,0,0.1,0,0.2C219,180.6,225,193,238,195.1L238,195.1z"/>
	<path class="st1_team-building-68" d="M245.4,225c-1,0-1.8-0.5-2.4-1.3c-0.6-0.8-1-1.6-1.4-2.5c-0.5-1.1-0.9-2.2-1.4-3.3c-0.2-0.5-0.4-1.1-0.6-1.6&#10;&#9;&#9;c-0.4-1.1-1.4-2-2.6-2.2l-1.9-0.4l-2.5-0.5c-3.5-0.8-3.9-0.6-6.4,1.9l-0.7,0.7c-1,1-2.1,2.1-3.2,3.1c-1.2,1.3-3.3,1.5-4.7,0.5&#10;&#9;&#9;c-2.9-1.8-5.5-3.5-7.9-5.1c-2-1.4-2.4-2.7-1.6-5.1c0.8-2,1.6-4,2.4-5.8c0.6-1.3,0.5-2.8-0.4-3.9l-0.9-1.3c-0.7-1-1.5-2.1-2.2-3.2&#10;&#9;&#9;c-0.7-1.4-2.2-2.2-3.8-2.1h-0.5h-2.1h-4.2l0,0c-1.4,0-2.6-0.8-3.1-2.1c-0.2-0.5-0.4-1-0.6-1.5c-0.6-3-1.2-6-1.8-9&#10;&#9;&#9;c-0.4-1.6,0.4-3.3,1.9-4c0.9-0.5,1.7-0.9,2.6-1.2c0.8-0.3,1.6-0.7,2.5-1l1.8-0.7c1-0.4,1.8-1.3,2-2.3c0.4-1.8,0.7-3.7,1.1-5.5&#10;&#9;&#9;l0.3-1.5c0.1-0.7-0.1-1.4-0.5-1.9c-0.6-0.8-1.4-1.5-2.1-2.4c-0.4-0.4-0.9-0.9-1.3-1.3c-0.6-0.6-1.3-1.2-1.9-1.9&#10;&#9;&#9;c-1.7-1.9-1.9-3.4-0.5-5.5c1.6-2.5,3.3-5.1,5-7.6c1-1.7,3.1-2.3,4.9-1.4c1.1,0.4,2.2,0.9,3.3,1.3l3.2,1.3c1,0.5,2.3,0.3,3.2-0.4&#10;&#9;&#9;c1.4-1.1,2.9-2.1,4.4-3.1l1.4-0.9c0.7-0.5,1.2-1.3,1.2-2.2c0.1-0.8,0.1-1.7,0.1-2.5c0-0.6,0-1.2,0-1.8c0-1.2-0.1-2.4,0-3.6&#10;&#9;&#9;c0-1.6,1.1-3.1,2.7-3.4c2.9-0.6,6-1.2,10-1.9c1.6-0.3,3.1,0.5,3.7,2c0.5,1,0.9,1.9,1.4,2.9l0.3,0.6c0.2,0.5,0.5,1.1,0.7,1.6&#10;&#9;&#9;c0.4,0.8,0.7,1.6,1.1,2.4c0.2,0.6,0.7,1,1.4,1.2l2.3,0.5c1.5,0.3,3,0.6,4.4,0.9c1.4,0.4,2.8-0.1,3.7-1.2c1-1.1,2.1-2.1,3.1-3.1&#10;&#9;&#9;l1.7-1.7c1-1.1,2.6-1.4,3.9-0.7c3.5,1.6,6.8,3.8,9.7,6.4c0.6,0.6,0.9,1.4,0.8,2.3c-0.1,0.9-0.3,1.8-0.7,2.6&#10;&#9;&#9;c-0.4,1.1-0.9,2.2-1.3,3.4c-0.4,0.9-0.7,1.8-1,2.6c-0.3,0.7-0.3,1.5,0.1,2.2c1.4,2,3,4.4,4.8,6.7c0.4,0.4,0.9,0.6,1.4,0.7&#10;&#9;&#9;c0.7,0.1,1.3,0.1,2,0.1h2.5c1.1,0,2.4,0,3.5,0c1.8,0.1,3.3,1.4,3.7,3.1c0.3,1.1,0.5,2.3,0.8,3.5c0.3,1.6,0.6,3.2,0.8,4.8l0.3,2&#10;&#9;&#9;c0,0.1,0,0.2,0,0.2l-0.1,0.8c0,0.1,0,0.1-0.1,0.2c-0.8,1.3-2.1,2.3-3.6,2.8c-1.2,0.5-2.4,1-3.5,1.5l-2.4,1&#10;&#9;&#9;c-0.6,0.3-1.1,0.8-1.2,1.5c-0.2,0.8-0.3,1.6-0.5,2.4c-0.3,1.3-0.5,2.6-0.8,4c-0.5,1.6,0.1,3.4,1.4,4.4c1.4,1.2,2.7,2.6,4.4,4.3&#10;&#9;&#9;s1.7,2.9,0.6,4.8c-1.9,3.1-3.4,5.5-4.8,7.6c-1.7,2.4-2.9,2.8-5.8,1.8l-0.2-0.1l-1.8-0.7c-1.4-0.5-2.7-1.1-4.1-1.7&#10;&#9;&#9;c-1-0.5-2.1-0.4-3,0.2l-0.8,0.5c-1.6,1.1-3.2,2.2-4.8,3.2c-0.7,0.5-1.1,1.2-1.1,2.1c-0.1,0.7-0.1,1.3-0.1,1.8c0,1.1,0,2.3,0,3.4&#10;&#9;&#9;v2.8c0,1.4-0.8,2.6-2.1,3.1l-0.2,0.1c-0.4,0.2-0.8,0.3-1.2,0.4l-6.8,1.4l-2.7,0.5c-0.2,0-0.4,0.1-0.6,0.1L245.4,225z M229.9,211.4&#10;&#9;&#9;c1,0,2,0.2,3,0.4c0.8,0.2,1.6,0.4,2.5,0.5l1.9,0.4c1.7,0.3,3,1.4,3.7,3l0.7,1.6c0.4,1.1,0.9,2.2,1.3,3.2c0.4,0.8,0.8,1.6,1.3,2.3&#10;&#9;&#9;c0.3,0.6,0.9,0.8,1.5,0.7l2.7-0.5c2.3-0.5,4.6-0.9,6.8-1.4c0.3-0.1,0.6-0.2,0.9-0.4l0.2-0.1c0.8-0.3,1.3-1,1.3-1.8v-2.8&#10;&#9;&#9;c0-1.1,0-2.3,0-3.4c0-0.7,0-1.3,0.1-2c0.1-1.3,0.7-2.4,1.8-3.1c1.6-1.1,3.2-2.1,4.8-3.2l0.8-0.5c1.3-0.9,2.9-1,4.3-0.4&#10;&#9;&#9;c1.3,0.6,2.7,1.1,4,1.6l1.7,0.7v0.7l0.2-0.7c2.3,0.8,2.8,0.6,4.1-1.3c1.4-2.1,2.9-4.4,4.8-7.5c0.8-1.3,0.7-1.9-0.4-3.1&#10;&#9;&#9;c-1.6-1.7-3-3-4.3-4.2c-1.7-1.4-2.4-3.6-1.9-5.8c0.3-1.3,0.6-2.6,0.8-3.9c0.2-0.8,0.3-1.6,0.5-2.4c0.2-1.1,0.9-2.1,2-2.5l2.4-1&#10;&#9;&#9;c1.2-0.5,2.3-1,3.5-1.5c1.1-0.3,2.2-1,2.9-2l0.1-0.6l-0.3-1.9c-0.3-1.6-0.5-3.2-0.8-4.8c-0.2-1.2-0.5-2.3-0.8-3.4&#10;&#9;&#9;c-0.2-1.2-1.2-2.1-2.4-2.1c-1.1-0.1-2.3,0-3.4,0h-2.5c-0.8,0-1.5,0-2.3-0.1c-0.9-0.1-1.7-0.5-2.2-1.2c-1.8-2.4-3.5-4.7-4.8-6.8&#10;&#9;&#9;c-0.7-1-0.7-2.3-0.2-3.5c0.3-0.9,0.7-1.8,1-2.7c0.4-1.1,0.9-2.2,1.3-3.4c0.3-0.7,0.5-1.5,0.6-2.2c0-0.4-0.1-0.8-0.3-1.1&#10;&#9;&#9;c-2.8-2.5-5.9-4.6-9.4-6.2c-0.8-0.4-1.8-0.2-2.3,0.4l-1.7,1.7c-1,1-2.1,2-3.1,3.1c-1.2,1.5-3.2,2.1-5.1,1.6&#10;&#9;&#9;c-1.4-0.3-2.9-0.6-4.4-0.9l-2.4-0.5c-1.1-0.2-1.9-1-2.4-2c-0.4-0.8-0.7-1.6-1.1-2.4l-0.7-1.6l-0.3-0.6c-0.4-1-0.9-1.9-1.3-2.8&#10;&#9;&#9;c-0.3-0.9-1.3-1.4-2.2-1.2c-4,0.7-7.1,1.3-9.9,1.9c-1,0.2-1.7,1.1-1.6,2.1c-0.1,1.1,0,2.3,0,3.5c0,0.6,0,1.2,0,1.8&#10;&#9;&#9;c0,0.8,0,1.7-0.1,2.6c-0.1,1.3-0.7,2.5-1.8,3.2l-1.4,0.9c-1.4,1-2.9,2-4.3,3c-1.3,1-3,1.2-4.5,0.6l-3.2-1.3&#10;&#9;&#9;c-1.1-0.4-2.2-0.9-3.3-1.3c-1.1-0.6-2.6-0.2-3.2,0.9c0,0,0,0,0,0c-1.7,2.5-3.4,5-5,7.5c-1,1.6-0.9,2.4,0.4,3.8&#10;&#9;&#9;c0.6,0.6,1.2,1.2,1.8,1.8l1.3,1.3c0.8,0.8,1.5,1.6,2.2,2.4c0.7,0.8,1,2,0.8,3.1l-0.3,1.5c-0.3,1.9-0.7,3.7-1.1,5.6&#10;&#9;&#9;c-0.3,1.5-1.4,2.8-2.8,3.3l-1.8,0.7l-2.4,1c-0.9,0.3-1.7,0.7-2.5,1.2c-1,0.4-1.5,1.4-1.3,2.5c0.6,3,1.2,6,1.8,9&#10;&#9;&#9;c0.1,0.4,0.2,0.7,0.4,1.1c0.2,0.8,1,1.4,1.9,1.4l0,0h4.2h2.1h0.4c2.1-0.2,4.1,0.9,5.1,2.7c0.6,1.1,1.4,2.1,2.1,3.1&#10;&#9;&#9;c0.3,0.4,0.6,0.9,1,1.3c1.1,1.5,1.3,3.6,0.5,5.3c-0.8,1.8-1.6,3.8-2.3,5.7c-0.7,1.8-0.5,2.4,1,3.5c2.3,1.6,4.9,3.3,7.8,5.1&#10;&#9;&#9;c0.9,0.7,2.2,0.6,3-0.3c1.1-1,2.1-2,3.1-3.1l0.7-0.7C227.1,212.2,228.1,211.4,229.9,211.4L229.9,211.4z M290.3,171.4L290.3,171.4z&#10;&#9;&#9; M241.1,196c-1.1,0-2.2-0.1-3.2-0.2l0,0c-5.8-0.9-11-4.1-14.3-8.9c-3.1-4.4-4.3-9.9-3.3-15.2c1.7-11.4,12.3-19.3,23.8-17.6&#10;&#9;&#9;c5.7,0.8,10.7,4,14,8.6c3.3,4.5,4.7,10.1,3.8,15.6C260.2,188.4,251.4,196,241.1,196L241.1,196z M238.1,194.4&#10;&#9;&#9;c10.7,1.6,20.7-5.7,22.4-16.4c0.8-5.2-0.5-10.4-3.6-14.6c-6.2-8.8-18.4-10.9-27.2-4.7c-4.4,3.1-7.3,7.8-8.1,13.1&#10;&#9;&#9;c-0.9,5,0.2,10.1,3.1,14.2C227.8,190.5,232.7,193.6,238.1,194.4L238.1,194.4L238.1,194.4z"/>
</g>
<g id="Character_Male_team-building-68">
	<path class="st1_team-building-68" d="M393.3,313.2c0.3,1,3.7,6.7,3,7.8s-11.5,8-8.3,9s21.5-1.5,21.5-1.5l-11.1-29.1L393.3,313.2L393.3,313.2z"/>
	<path class="st1_team-building-68" d="M390.9,330.9c-1,0-2.1,0-3.1-0.3c-0.5-0.1-0.9-0.6-1.1-1.1c-0.2-1.5,1.9-3.4,6.6-7c0.8-0.6,1.6-1.2,2.4-1.9&#10;&#9;&#9;c0.2-0.7-1.6-4.1-2.2-5.4c-0.3-0.6-0.6-1.1-0.8-1.7c0-0.2,0-0.3,0-0.5l5.1-13.8c0.1-0.3,0.4-0.5,0.6-0.5l0,0c0.3,0,0.5,0.2,0.6,0.5&#10;&#9;&#9;l11.1,29.1c0.1,0.2,0.1,0.4,0,0.6c-0.1,0.2-0.3,0.3-0.5,0.3C408,329.4,396.8,330.9,390.9,330.9L390.9,330.9z M388.1,329.2h0.1&#10;&#9;&#9;c2.4,0.8,14.7-0.6,20.3-1.4l-10.1-26.5l-4.4,11.8c0.1,0.3,0.4,0.8,0.7,1.3c2,3.9,2.8,5.9,2.2,6.8c-0.8,0.9-1.7,1.6-2.7,2.3&#10;&#9;&#9;C392.5,324.9,388.2,328.2,388.1,329.2L388.1,329.2z"/>
	<path class="st1_team-building-68" d="M341.7,307.6c0,0,6.4,18.3,5.3,18.7s-27.9,6.6-26.8,5s13.7-8.2,13.8-7.4s-1.7-8.9-1.7-8.9L341.7,307.6&#10;&#9;&#9;L341.7,307.6z"/>
	<path class="st1_team-building-68" d="M321,332.1c-0.7,0-1.2-0.1-1.4-0.3c-0.2-0.3-0.2-0.7,0-1c0.9-1.2,10.4-6.7,13.6-7.6c-0.2-0.8-0.4-1.9-0.7-3.7&#10;&#9;&#9;l-0.9-4.5c0-0.3,0-0.5,0.2-0.7l9.4-7.4c0.2-0.1,0.4-0.2,0.6-0.1c0.2,0.1,0.4,0.2,0.5,0.4c6.6,18.9,5.5,19.3,4.9,19.6&#10;&#9;&#9;C347,327,326.6,332.1,321,332.1L321,332.1z M333.7,324.5c-4.1,1.7-8.1,3.8-11.9,6.3c5-0.5,21.9-4.3,24.6-5.1c-0.1-1.8-2.5-9.6-5-17&#10;&#9;&#9;l-8.2,6.5c0.3,1.7,1.5,7.8,1.6,8.4v0l0,0c0.1,0.4-0.2,0.7-0.6,0.8C334,324.6,333.8,324.6,333.7,324.5L333.7,324.5z M333.4,324&#10;&#9;&#9;L333.4,324c-0.1,0.1,0,0.3,0.1,0.4C333.5,324.2,333.4,324.1,333.4,324L333.4,324z"/>
	<path class="st1_team-building-68" d="M331.6,199.8c0,0-18.8,38.8-19,51.1s15.8,64,15.8,64l16.4-2.7c0,0-12.2-51.7-10.4-57.1s15.9-40.2,15.9-40.2&#10;&#9;&#9;s5.5,29.8,9.5,40.8c3.9,11,28.8,58,28.8,58l17.1-3.3c0,0-22.7-52.7-23.6-61.8s-5.3-57.6-5.3-57.6L331.6,199.8L331.6,199.8z"/>
	<path class="st1_team-building-68" d="M328.4,315.7c-0.3,0-0.6-0.2-0.7-0.5c-0.7-2.1-16.1-52-15.9-64.2s18.3-49.8,19.1-51.4c0.1-0.2,0.3-0.3,0.5-0.4&#10;&#9;&#9;l45.4-8.7c0.2,0,0.4,0,0.5,0.1c0.2,0.1,0.3,0.3,0.3,0.5c0,0,4.5,48.6,5.3,57.7c0.8,8.9,23.3,61,23.5,61.5c0.2,0.3,0,0.8-0.3,0.9&#10;&#9;&#9;c-0.1,0-0.1,0.1-0.2,0.1l-17.1,3.3c-0.3,0.1-0.6-0.1-0.8-0.4c-1-1.9-25-47.2-28.9-58.1c-3.3-9.1-7.7-31.3-9.1-38.6&#10;&#9;&#9;c-3.1,7.7-13.5,33.4-15,37.9c-1.5,4.3,7,42.4,10.4,56.7c0.1,0.4-0.1,0.8-0.5,0.8c0,0,0,0,0,0l-16.4,2.7L328.4,315.7L328.4,315.7z&#10;&#9;&#9; M332.1,200.5c-1.8,3.7-18.6,39.1-18.8,50.5s13.9,57.5,15.6,63.2l15-2.5c-1.9-7.9-12-51.5-10.2-56.7s15.4-38.8,15.9-40.2&#10;&#9;&#9;c0.1-0.4,0.6-0.5,0.9-0.4c0.2,0.1,0.4,0.3,0.4,0.5c0.1,0.3,5.6,29.9,9.5,40.7c3.7,10.2,26,52.6,28.6,57.5l15.8-3&#10;&#9;&#9;c-3-6.9-22.5-52.6-23.3-61.2c-0.8-8.4-4.7-50.7-5.2-56.9L332.1,200.5L332.1,200.5z"/>
	<polygon class="st2_team-building-68 targetColor" points="329.4,134.3 307.5,145.7 311.6,168.1 332.2,163.2 &#9;" style="fill: rgb(13, 110, 253);"/>
	<path class="st2_team-building-68 targetColor" d="M329.4,134.3c1.3-1.8,28.3-8,36.5-1.2s13.6,54.6,14.9,69.3l-53.1,3.8C327.6,206.2,322.2,144.1,329.4,134.3&#10;&#9;&#9;L329.4,134.3z" style="fill: rgb(13, 110, 253);"/>
	<path class="st1_team-building-68" d="M327.2,201.8c-0.4,0-0.7-0.3-0.7-0.6c-0.1-1.8-3.3-43.3-1-53.6c0.1-0.4,0.5-0.6,0.8-0.5s0.6,0.5,0.5,0.8&#10;&#9;&#9;c-2.3,10,1,52.7,1,53.1C327.9,201.4,327.6,201.7,327.2,201.8L327.2,201.8L327.2,201.8z"/>
	<path class="st0_team-building-68" d="M344.9,124.1c3-0.6,5.7-2,7.9-4.1c1-0.9,1.8-2.1,2.1-3.4c0.3-1.4-0.3-2.8-1.5-3.4c1.3-0.8,2.2-2.1,2.3-3.6&#10;&#9;&#9;c0.1-1.5-0.1-3-0.8-4.3c-0.8-1.8-2.2-3.5-4.1-3.7c0.8-1.4,1.6-3.1,1.1-4.7c-0.3-0.8-0.9-1.4-1.5-1.9c-1.2-1.1-2.5-2.1-3.9-2.9&#10;&#9;&#9;c-0.7-0.5-1.7-0.9-2.4-0.4c-0.6-3.2-3-5.7-6.1-6.5c-1.5-0.4-3.1-0.4-4.6,0.2c-1.4,0.9-2.7,1.8-3.9,2.9c-2.2-0.8-5.8-0.5-7.6,1.1&#10;&#9;&#9;c-1.6,1.4-2.3,3.6-1.8,5.6c-1.7,0.8-3.2,1.9-4.4,3.3c-1.2,1.4-1.7,3.3-1.3,5.2c0.4,1.9,2.1,3.2,4,3.2c-1.6,1.5-1.9,4-0.6,5.8&#10;&#9;&#9;c1.4,1.7,3.6,2.5,5.8,1.9c0.3-0.1,0.6-0.1,0.9-0.1c0.3,0.1,0.7,0.4,0.9,0.6c0.9,0.8,2.1,0.6,3,1.2c1.3,0.9,2.5,1.9,3.7,3&#10;&#9;&#9;c1.2,1,2.4,1.8,3.7,2.7c1.4,0.9,2.7,2.3,4.3,2.9c1.4,0.5,2.3,0,3.7-0.3L344.9,124.1L344.9,124.1z"/>
	<path class="st1_team-building-68" d="M341.3,125.6c-0.5,0-1-0.1-1.4-0.3c-1.1-0.5-2.2-1.1-3.1-1.9c-0.5-0.3-0.9-0.7-1.4-1c-1.3-0.8-2.6-1.7-3.8-2.7&#10;&#9;&#9;c-0.4-0.3-0.8-0.7-1.2-1c-0.7-0.7-1.5-1.4-2.4-1.9c-0.4-0.2-0.7-0.3-1.1-0.4c-0.7-0.1-1.4-0.4-2-0.9l-0.2-0.2&#10;&#9;&#9;c-0.1-0.1-0.2-0.2-0.4-0.3c-0.2,0-0.3,0-0.5,0.1c-2.4,0.7-5.1-0.1-6.6-2.1c-1.2-1.7-1.2-3.9-0.2-5.7c-1.6-0.6-2.9-1.9-3.3-3.6&#10;&#9;&#9;c-0.4-2,0.1-4.2,1.5-5.8c1.1-1.4,2.5-2.5,4.1-3.3c-0.3-2.2,0.5-4.3,2.1-5.8c2-1.7,5.5-2,7.9-1.3c1.2-1,2.5-2,3.8-2.8&#10;&#9;&#9;c1.6-0.6,3.4-0.7,5-0.2c3.1,0.8,5.5,3.2,6.4,6.3c0.8,0,1.6,0.2,2.3,0.7c1.4,0.9,2.8,1.9,4,3c0.7,0.6,1.3,1.4,1.7,2.2&#10;&#9;&#9;c0.4,1.5,0.2,3.1-0.7,4.4c1.7,0.7,3,2.2,3.7,3.9c0.7,1.5,1,3.1,0.8,4.7c-0.2,1.4-0.8,2.6-1.8,3.5c0.9,1,1.2,2.3,1,3.5&#10;&#9;&#9;c-0.4,1.5-1.2,2.8-2.3,3.8c-2.3,2.1-5.2,3.6-8.2,4.2l0,0l-1.1,0.3c-0.3,0.1-0.6,0.2-0.9,0.2C342.5,125.6,341.9,125.7,341.3,125.6&#10;&#9;&#9;L341.3,125.6z M324.2,113.6c0.1,0,0.2,0,0.3,0c0.4,0.1,0.8,0.3,1.1,0.7l0.1,0.1c0.4,0.3,0.9,0.5,1.4,0.6c0.5,0.1,1,0.3,1.5,0.5&#10;&#9;&#9;c1,0.6,1.9,1.3,2.7,2.1c0.4,0.3,0.8,0.7,1.1,1c1.2,0.9,2.4,1.8,3.7,2.6c0.5,0.3,1,0.7,1.5,1.1c0.8,0.7,1.7,1.3,2.7,1.7&#10;&#9;&#9;c0.7,0.3,1.6,0.2,2.3-0.1c0.3-0.1,0.6-0.2,1-0.3l1-0.2l0,0c2.8-0.6,5.5-1.9,7.6-3.9c0.9-0.8,1.6-1.8,1.9-3c0.2-1-0.2-2.1-1.1-2.7&#10;&#9;&#9;c-0.3-0.2-0.5-0.6-0.3-0.9c0.1-0.1,0.2-0.3,0.3-0.3c1.1-0.6,1.9-1.8,2-3.1c0.1-1.4-0.1-2.8-0.7-4c-0.4-0.9-1.6-3.1-3.5-3.3&#10;&#9;&#9;c-0.2,0-0.4-0.2-0.5-0.4c-0.1-0.2-0.1-0.5,0-0.7c0.7-1.3,1.5-2.8,1-4.1c-0.3-0.6-0.7-1.2-1.3-1.7c-1.2-1.1-2.4-2-3.8-2.8&#10;&#9;&#9;c-0.5-0.3-1.3-0.7-1.7-0.4c-0.2,0.1-0.5,0.1-0.7,0c-0.2-0.1-0.4-0.3-0.4-0.5c-0.6-2.9-2.8-5.2-5.6-5.9c-1.4-0.4-2.8-0.3-4.1,0.2&#10;&#9;&#9;c-1.2,0.8-2.4,1.7-3.6,2.6c-0.2,0.3-0.5,0.4-0.9,0.3c-1.9-0.7-5.2-0.5-6.9,0.9c-1.4,1.3-2,3.2-1.5,5c0.1,0.3-0.1,0.6-0.4,0.8&#10;&#9;&#9;c-1.6,0.7-3,1.8-4.1,3.1c-1.1,1.3-1.5,3-1.2,4.6c0.4,1.5,1.7,2.6,3.2,2.7c0.3,0,0.6,0.2,0.7,0.4c0.1,0.3,0,0.6-0.2,0.8&#10;&#9;&#9;c-1.4,1.3-1.6,3.3-0.5,4.9c1.2,1.5,3.2,2.1,5,1.6C323.6,113.7,323.9,113.6,324.2,113.6L324.2,113.6z"/>
	<path class="st0_team-building-68" d="M324.4,115.5c0,0-2.6,7.1-1.5,8.2s3.7-0.4,3.7-0.4"/>
	<path class="st1_team-building-68" d="M324.1,124.8c-0.6,0-1.2-0.2-1.6-0.6c-1.3-1.2,0.3-6.1,1.3-8.9c0.2-0.4,0.6-0.5,0.9-0.4&#10;&#9;&#9;c0.3,0.1,0.5,0.5,0.4,0.9c-1.3,3.4-2,6.9-1.6,7.5c0.6,0.5,2.2-0.2,2.9-0.5c0.3-0.2,0.8-0.1,1,0.3c0.2,0.3,0.1,0.8-0.3,1&#10;&#9;&#9;C326.1,124.4,325.1,124.7,324.1,124.8L324.1,124.8z"/>
	<path class="st0_team-building-68" d="M322.6,101.7c-0.3,0.3-0.6,0.7-0.6,1.2c-0.3,1.6-0.3,3.2-0.1,4.8c0.4,3.2,1.1,6.3,1.9,9.3&#10;&#9;&#9;c1,4.1,2.1,8.2,3.2,12.2c0.8,2.6,7.5,1,8.5,0l1.4,10.5c0,0,3.4,0.1,8.3-3.6s4.6-5.1,4.6-5.1l-3.2-11.7c0,0-4.4,1.1-8.3-3.6&#10;&#9;&#9;c-0.6-0.8-1.1-2-1.8-2.6c-0.9-0.7-2-0.7-2.8-1.7c-0.7-1-0.9-2.2-0.6-3.4c0.1-0.2,0.2-0.6,0-0.8c-0.1-0.1-0.3-0.2-0.4-0.2&#10;&#9;&#9;c-1.8-0.5-2.8-2.2-2.4-4c0,0,0,0,0,0c-1.7,0.4-3.2-1-4.4-2.3c0.4,0.4-2.6,0.8-2.7,0.8C323,101.5,322.8,101.6,322.6,101.7&#10;&#9;&#9;L322.6,101.7z"/>
	<path class="st1_team-building-68" d="M336.9,140.4L336.9,140.4c-0.4,0-0.7-0.3-0.7-0.6l-1.2-9.4c-2.1,0.9-4.3,1.1-6.5,0.8c-1-0.1-1.8-0.8-2.1-1.7&#10;&#9;&#9;c-1.2-4-2.3-8.1-3.3-12.2l-0.2-0.9c-0.8-2.8-1.3-5.7-1.7-8.6c-0.3-1.7-0.3-3.4,0.1-5.1c0.1-0.6,0.4-1.1,0.9-1.6l0,0&#10;&#9;&#9;c0.2-0.2,0.5-0.3,0.8-0.4h0.2c0.7-0.1,1.3-0.2,2-0.4c0-0.1,0.1-0.1,0.2-0.2c0.3-0.3,0.7-0.2,1,0c0,0,0,0,0,0l0,0&#10;&#9;&#9;c1,1.2,2.4,2.4,3.7,2.1c0.2-0.1,0.5,0,0.7,0.2c0.2,0.2,0.2,0.4,0.1,0.7c-0.4,1.4,0.5,2.8,1.8,3.1c0.3,0,0.6,0.2,0.8,0.4&#10;&#9;&#9;c0.3,0.4,0.4,1,0.2,1.4c-0.3,1-0.1,2,0.5,2.8c0.3,0.4,0.8,0.7,1.3,0.8c0.5,0.2,1,0.4,1.4,0.7c0.5,0.5,1,1.1,1.3,1.7&#10;&#9;&#9;c0.2,0.3,0.4,0.7,0.6,1c3.5,4.2,7.4,3.4,7.6,3.4c0.4-0.1,0.7,0.1,0.8,0.5l3.2,11.7c0.1,0.6-0.2,2.2-4.8,5.8&#10;&#9;&#9;S337.5,140.5,336.9,140.4L336.9,140.4z M335.5,128.6c0.1,0,0.1,0,0.2,0c0.3,0.1,0.4,0.3,0.5,0.6l1.3,9.8c2.7-0.5,5.2-1.7,7.2-3.5&#10;&#9;&#9;c3.7-2.9,4.2-4.2,4.3-4.5l-3-11c-1.5,0.1-5.1,0-8.3-3.9c-0.3-0.4-0.5-0.8-0.8-1.2c-0.3-0.5-0.6-0.9-1-1.3c-0.3-0.2-0.6-0.4-1-0.5&#10;&#9;&#9;c-0.7-0.2-1.4-0.7-1.9-1.3c-0.9-1.1-1.1-2.6-0.7-4c0,0,0-0.1,0-0.1c-1-0.2-1.9-0.9-2.4-1.8c-0.4-0.6-0.6-1.4-0.6-2.1&#10;&#9;&#9;c-1.4-0.3-2.7-1-3.6-2.1c-0.8,0.2-1.6,0.4-2.4,0.5c-0.1,0-0.3,0.1-0.4,0.2l0,0c-0.1,0.1-0.2,0.3-0.4,0.8c-0.3,1.5-0.3,3,0,4.6&#10;&#9;&#9;c0.4,2.8,0.9,5.6,1.7,8.4l0.2,0.9c1,4.1,2.1,8.2,3.2,12.2c0.1,0.4,0.5,0.6,1.1,0.8c2.1,0.5,5.7-0.5,6.2-1.1&#10;&#9;&#9;C335.1,128.6,335.3,128.6,335.5,128.6L335.5,128.6z M322.6,101.7L322.6,101.7z"/>
	<path class="st0_team-building-68" d="M335,114.2c-0.1-1.1,0-2.1,0.5-3.1c0.2-0.8,0.6-1.5,1-2.2c0.5-0.7,1.2-1.1,2-1.2c0.7,0,1.4,0.3,1.9,0.9&#10;&#9;&#9;c0.5,0.6,0.8,1.2,1,1.9c0.9,3.1,0,6.4-2.2,8.7l0.2-0.3"/>
	<path class="st1_team-building-68" d="M339.2,119.9c-0.2,0-0.3-0.1-0.4-0.1c-0.3-0.2-0.4-0.6-0.2-0.9l0.1-0.2l0,0c2-2.1,2.8-5.2,2-8&#10;&#9;&#9;c-0.2-0.6-0.4-1.2-0.8-1.6c-0.3-0.4-0.8-0.6-1.4-0.7c-0.6,0.1-1.2,0.4-1.5,0.9c-0.4,0.6-0.7,1.3-1,2c-0.4,0.8-0.6,1.8-0.5,2.7&#10;&#9;&#9;c0.1,0.4-0.2,0.7-0.5,0.8c-0.4,0.1-0.7-0.1-0.8-0.5c0,0,0,0,0,0c-0.2-1.2,0-2.4,0.5-3.5c0.3-0.9,0.6-1.7,1.1-2.4&#10;&#9;&#9;c0.6-0.9,1.5-1.4,2.6-1.5c0.9,0,1.8,0.4,2.4,1.1c0.5,0.6,0.9,1.4,1.1,2.2c0.9,3.3,0,6.9-2.4,9.4&#10;&#9;&#9;C339.6,119.8,339.4,119.9,339.2,119.9L339.2,119.9z"/>
	<path class="st1_team-building-68" d="M335.5,129.3c0,0,3.2-1.9,4.3-4.7c0,0,1.2,6.3-3.7,9.3L335.5,129.3z"/>
	<path class="st1_team-building-68" d="M336.1,134.6c-0.1,0-0.2,0-0.3-0.1c-0.2-0.1-0.4-0.3-0.4-0.5l-0.6-4.7c0-0.3,0.1-0.6,0.3-0.7c0,0,3-1.8,4-4.3&#10;&#9;&#9;c0.1-0.3,0.4-0.5,0.7-0.4c0.3,0,0.6,0.3,0.6,0.6c0,0.3,1.3,6.8-4,10.1C336.4,134.6,336.3,134.6,336.1,134.6L336.1,134.6z&#10;&#9;&#9; M336.3,129.6l0.4,3.1c1.6-1.5,2.5-3.6,2.6-5.7C338.4,128,337.4,128.9,336.3,129.6L336.3,129.6z"/>
	
		<ellipse transform="matrix(0.9645 -0.2642 0.2642 0.9645 -17.8325 90.2509)" class="st1_team-building-68" cx="326.6" cy="111.4" rx="0.6" ry="1.5"/>
	<path class="st1_team-building-68" d="M327.8,126.4c-0.3,0-0.6,0-1-0.1c-0.4-0.1-0.6-0.5-0.5-0.9c0.1-0.4,0.5-0.6,0.9-0.5c0.1,0,2.3,0.6,4-2.6&#10;&#9;&#9;c0.2-0.3,0.6-0.5,0.9-0.3c0.3,0.2,0.5,0.6,0.3,0.9C331.1,125.7,329.2,126.4,327.8,126.4L327.8,126.4z"/>
	<path class="st0_team-building-68" d="M331.7,159.3c0,0-36.6,24.7-41.8,24.4s-12.8-4.1-13-1.4s7.5,5,7.5,5s-10.7,1.3-10.4,4.4s4.1,6.7,8.6,6.2&#10;&#9;&#9;s7.6-2.9,11.6-3.5s45.9-21.2,45.9-21.2L331.7,159.3L331.7,159.3z"/>
	<path class="st1_team-building-68" d="M281.8,198.8c-2,0-3.9-0.7-5.5-2c-1.6-1.2-2.7-3-3-4.9c-0.3-2.7,4.8-4.1,8.2-4.8c-2.4-1-5.5-2.7-5.4-4.8&#10;&#9;&#9;c0-0.5,0.3-1,0.7-1.2c1.2-0.8,3.6-0.2,6.6,0.6c2.1,0.6,4.2,1.1,6.4,1.3h0.1c3.9,0,26.8-14.5,41.3-24.3c0.2-0.1,0.4-0.1,0.5-0.1&#10;&#9;&#9;c0.2,0,0.3,0.2,0.5,0.3l8.5,14.1c0.1,0.2,0.1,0.4,0.1,0.6c-0.1,0.2-0.2,0.3-0.4,0.4c-1.7,0.8-42,20.6-46.1,21.2&#10;&#9;&#9;c-1.7,0.4-3.4,0.9-5,1.6c-2.1,0.9-4.3,1.6-6.6,1.9C282.5,198.8,282.2,198.8,281.8,198.8L281.8,198.8z M278.4,182.1&#10;&#9;&#9;c-0.2,0-0.5,0-0.7,0.1c0,0-0.1,0.1-0.1,0.2c-0.1,1.5,4.1,3.4,7,4.3c0.3,0.1,0.5,0.4,0.5,0.7c0,0.3-0.3,0.6-0.6,0.6&#10;&#9;&#9;c-4.2,0.5-9.9,2.1-9.8,3.7c0.3,1.6,1.2,3,2.5,4c1.5,1.2,3.4,1.8,5.4,1.6c2.2-0.3,4.3-0.9,6.3-1.8c1.7-0.8,3.5-1.3,5.3-1.7&#10;&#9;&#9;c3-0.5,30.4-13.6,45-20.8l-7.8-12.8c-5.8,3.9-36.6,24.4-41.6,24.1c-2.3-0.2-4.5-0.7-6.7-1.4C281.7,182.6,280.1,182.2,278.4,182.1&#10;&#9;&#9;L278.4,182.1z"/>
	<polyline class="st2_team-building-68 targetColor" points="345.9,145.4 330.6,156.6 341.9,175.7 354.6,167.7 &#9;" style="fill: rgb(13, 110, 253);"/>
	<path class="st1_team-building-68" d="M341.9,176.4c-0.1,0-0.1,0-0.2,0c-0.2,0-0.3-0.2-0.4-0.3L330,156.9c-0.2-0.3-0.1-0.7,0.2-0.9l15.3-11.1&#10;&#9;&#9;c0.3-0.2,0.8-0.2,1,0.2c0.2,0.3,0.2,0.8-0.1,1l-14.8,10.8l10.6,18l12-7.6c0.3-0.2,0.8-0.1,1,0.2s0.1,0.8-0.2,1l-12.6,8&#10;&#9;&#9;C342.2,176.4,342.1,176.4,341.9,176.4L341.9,176.4z"/>
</g>
<g id="Steps_team-building-68">
	<rect x="74.5" y="375.1" class="st0_team-building-68" width="106.8" height="40"/>
	<path class="st1_team-building-68" d="M181.3,415.8H74.5c-0.4,0-0.7-0.3-0.7-0.7l0,0v-40c0-0.4,0.3-0.7,0.7-0.7h0h106.8c0.4,0,0.7,0.3,0.7,0.7l0,0&#10;&#9;&#9;v40C182,415.5,181.7,415.8,181.3,415.8C181.3,415.8,181.3,415.8,181.3,415.8z M75.2,414.4h105.4v-38.6H75.2L75.2,414.4z"/>
	<rect x="196.6" y="353.9" class="st0_team-building-68" width="106.8" height="61.3"/>
	<path class="st1_team-building-68" d="M303.4,415.8H196.6c-0.4,0-0.7-0.3-0.7-0.7l0,0v-61.3c0-0.4,0.3-0.7,0.7-0.7c0,0,0,0,0,0h106.8&#10;&#9;&#9;c0.4,0,0.7,0.3,0.7,0.7v0v61.3C304.1,415.5,303.8,415.8,303.4,415.8L303.4,415.8z M197.3,414.4h105.4v-59.9H197.3L197.3,414.4&#10;&#9;&#9;L197.3,414.4z"/>
	<rect x="318.7" y="328.5" class="st0_team-building-68" width="106.8" height="86.7"/>
	<path class="st1_team-building-68" d="M425.5,415.8H318.7c-0.4,0-0.7-0.3-0.7-0.7v0v-86.7c0-0.4,0.3-0.7,0.7-0.7h0h106.8c0.4,0,0.7,0.3,0.7,0.7v0&#10;&#9;&#9;v86.7C426.2,415.5,425.9,415.8,425.5,415.8z M319.4,414.4h105.4v-85.3H319.4L319.4,414.4L319.4,414.4z"/>
</g>
<g id="Character_Female_team-building-68">
	<path class="st0_team-building-68" d="M162.5,279.1c0,0-0.8,1.5-2,3.8c-5.2,10-8.7,27-19.3,36.9c-3.9,3.6-46.6,22.3-46.6,22.3L90,329.4&#10;&#9;&#9;c0,0,33.9-21.4,36.7-24.3c3.6-3.7,19-52.9,19-52.9L162.5,279.1L162.5,279.1z"/>
	<path class="st1_team-building-68" d="M94.7,342.8c-0.1,0-0.2,0-0.3-0.1c-0.2-0.1-0.3-0.2-0.4-0.4l-4.6-12.6c-0.1-0.3,0-0.7,0.3-0.8&#10;&#9;&#9;c11.7-7.4,34.4-21.9,36.6-24.2c2.9-2.9,14.6-39,18.9-52.6c0.1-0.3,0.3-0.5,0.6-0.5c0.3,0,0.5,0.1,0.7,0.3l16.7,26.8&#10;&#9;&#9;c0.1,0.2,0.1,0.5,0,0.7c0,0-0.8,1.5-2,3.8c-1.7,3.5-3.2,7.1-4.6,10.8c-3.5,9.1-7.4,19.3-14.8,26.3c-3.9,3.7-45,21.7-46.8,22.4&#10;&#9;&#9;C94.8,342.8,94.7,342.8,94.7,342.8L94.7,342.8z M90.9,329.8l4.2,11.4c14.9-6.5,42.7-19.1,45.7-21.9c7.2-6.7,11.1-16.8,14.5-25.7&#10;&#9;&#9;c1.4-3.7,2.9-7.4,4.6-11c0.9-1.7,1.5-2.9,1.8-3.5L146,254c-2.6,8.3-15.4,48.2-18.7,51.7C124.5,308.5,95.2,327.1,90.9,329.8&#10;&#9;&#9;L90.9,329.8z"/>
	<path class="st1_team-building-68" d="M90,329.5c0,0-10.4,1.7-10.3,3.3s8.4,27.8,11.5,26.7s3.5-17.3,3.5-17.3L90,329.5z"/>
	<path class="st1_team-building-68" d="M91,360.2c-0.3,0-0.7-0.1-0.9-0.3c-4-2.6-11-25.9-11-27.1c0-0.5-0.1-2.2,10.9-4c0.3-0.1,0.7,0.1,0.8,0.5&#10;&#9;&#9;l4.6,12.6c0,0.1,0,0.2,0,0.3c-0.1,3.9-0.6,16.8-3.9,18C91.3,360.2,91.2,360.2,91,360.2z M80.4,332.8c1.2,4.6,2.7,9.1,4.4,13.5&#10;&#9;&#9;c4.5,12.1,6.1,12.4,6.2,12.4c1.6-0.6,2.8-9,3-16.6l-4.4-12C85.5,331,81.1,332.1,80.4,332.8z"/>
	<path class="st0_team-building-68" d="M175,271.2c0,0,0.5,1.6,1.3,4.1c3.4,10.8,12.2,39.2,12.4,43.5c0.4,5.3-19.2,43.9-19.2,43.9l-13.3-2.3&#10;&#9;&#9;c0,0,11.8-41.5,11.8-45.5c0-5.2-23.8-50.9-23.8-50.9L175,271.2z"/>
	<path class="st1_team-building-68" d="M169.5,363.5h-0.1l-13.3-2.3c-0.2,0-0.4-0.1-0.5-0.3c-0.1-0.2-0.1-0.4-0.1-0.6c4.1-14.3,11.8-42.1,11.8-45.3&#10;&#9;&#9;c0-4.1-17.1-37.9-23.7-50.6c-0.1-0.2-0.1-0.5,0.1-0.8c0.2-0.2,0.4-0.3,0.7-0.2l30.7,7.2c0.2,0.1,0.4,0.2,0.5,0.5l1.3,4.1&#10;&#9;&#9;c3.7,11.7,12.2,39.3,12.5,43.7c0.4,5.5-18.5,42.7-19.3,44.3C170,363.4,169.8,363.5,169.5,363.5L169.5,363.5z M157.1,359.9l12,2.1&#10;&#9;&#9;c5.6-11,19.2-38.9,18.9-43.1c-0.3-4.3-9.6-34.3-12.4-43.3l-1.2-3.8l-28.9-6.7c4,7.8,23.1,45,23.2,49.9&#10;&#9;&#9;C168.8,318.8,158.8,354.1,157.1,359.9L157.1,359.9z"/>
	<path class="st0_team-building-68" d="M126.7,158.1c-2.8,0.2-5.5,1-8,2.2c-4.4,2.1-8.5,5.6-9.5,10.3c-0.8,3.9,0.7,7.8,2.6,11.2s4.1,6.8,5.2,10.5&#10;&#9;&#9;s0.6,8.3-2.4,10.9c4-1.8,8-3.6,11.2-6.5c1.9-1.7,3.5-3.9,3.6-6.5c0-2.1-0.5-4.1-1.5-6c-1.2-2.8-2.5-5.7-2.7-8.8s0.9-6.5,3.6-8&#10;&#9;&#9;c2.3-1.4,10-1.2,8.8-5.5C136.5,158.6,129.4,158,126.7,158.1L126.7,158.1z"/>
	<path class="st1_team-building-68" d="M114.5,203.9c-0.4,0-0.7-0.3-0.7-0.7c0-0.2,0.1-0.4,0.3-0.5c3-2.6,3.1-7.1,2.2-10.2c-0.9-2.7-2.1-5.3-3.6-7.7&#10;&#9;&#9;c-0.5-0.9-1-1.8-1.5-2.7c-2.5-4.6-3.3-8.3-2.6-11.7c1.2-5.8,6.7-9.2,9.9-10.8c2.6-1.3,5.4-2.1,8.3-2.3l0,0&#10;&#9;&#9;c2.8-0.1,10.3,0.4,11.4,4.3c0.3,0.9,0.2,1.8-0.2,2.6c-1,1.7-3.6,2.3-5.9,2.9c-1,0.2-2,0.5-2.9,0.9c-2.7,1.6-3.4,5-3.3,7.4&#10;&#9;&#9;c0.2,2.8,1.4,5.6,2.5,8.2l0.2,0.4c1,1.9,1.6,4.1,1.6,6.3c-0.2,2.4-1.5,4.8-3.9,6.9c-3.3,3-7.4,4.9-11.3,6.6&#10;&#9;&#9;C114.7,203.9,114.6,204,114.5,203.9L114.5,203.9z M126.7,158.7c-2.7,0.2-5.4,0.9-7.8,2.2c-3,1.4-8,4.6-9.1,9.8&#10;&#9;&#9;c-0.6,3,0.2,6.5,2.5,10.8c0.5,0.9,1,1.8,1.5,2.6c1.6,2.5,2.9,5.2,3.8,8c0.9,3.1,0.7,6.3-0.7,9.2c3-1.3,5.8-3,8.3-5.2&#10;&#9;&#9;c1.5-1.3,3.2-3.5,3.4-6c0-2-0.5-3.9-1.4-5.7l-0.2-0.4c-1.4-2.7-2.3-5.7-2.6-8.7c-0.2-3.7,1.3-7.1,4-8.7c1-0.5,2.2-0.9,3.3-1.1&#10;&#9;&#9;c1.9-0.5,4.3-1,5-2.2c0.2-0.5,0.3-1,0.1-1.5C136,159.3,129.5,158.6,126.7,158.7L126.7,158.7L126.7,158.7z"/>
	<path class="st1_team-building-68" d="M130.1,159c-0.9,1.6-1.3,3.5-1,5.3c0.1,1.2,0.5,2.4,1.3,3.4c1,1.1,2.5,1.7,4,1.6c0.7,0,1.3-0.3,1.8-0.7&#10;&#9;&#9;c0.4-0.4,0.6-1,0.6-1.5C137.7,163.1,134.8,151.5,130.1,159L130.1,159z"/>
	<path class="st1_team-building-68" d="M134,170c-1.6,0-3.1-0.7-4.2-1.8c-0.8-1.1-1.4-2.4-1.4-3.8c-0.3-2,0.1-4,1.1-5.8l0,0c1.9-2.9,3.5-3,4.5-2.6&#10;&#9;&#9;c2.9,1.2,4.2,8.2,3.5,11.1c-0.1,0.7-0.4,1.3-0.8,1.9c-0.6,0.6-1.4,1-2.3,1L134,170L134,170z M130.7,159.4c-0.8,1.5-1.1,3.2-0.9,4.8&#10;&#9;&#9;c0.1,1.1,0.5,2.1,1.1,3c0.9,1,2.1,1.4,3.4,1.3c0.5,0,1-0.2,1.3-0.5c0.3-0.3,0.4-0.8,0.5-1.2c0.5-2.6-0.7-8.8-2.7-9.6&#10;&#9;&#9;C132.4,156.9,131.4,158.2,130.7,159.4L130.7,159.4L130.7,159.4z"/>
	<path class="st0_team-building-68" d="M155.2,184.1c-1.1,1.3-2.8,2.1-5.7,1.8c-2.4-0.3-4.6-1.2-6.5-2.6c-7.7-5.4-11.6-14.6-10.2-23.9&#10;&#9;&#9;c1.5-9.2,10.7-18.3,20.5-14.8c3.4,1.2,6,3.9,7.2,7.2c1.4-0.5,2.9-0.1,3.8,1c2.6,2.5,2.4,5.2,1.1,8.3c-2.2,5-5,9.8-7,14.9&#10;&#9;&#9;C157.3,179,156.9,182.2,155.2,184.1L155.2,184.1z"/>
	<path class="st1_team-building-68" d="M150.6,186.7c-0.4,0-0.8,0-1.2-0.1c-2.5-0.3-4.8-1.3-6.8-2.7c-7.9-5.5-12-15-10.5-24.6&#10;&#9;&#9;c1-5.8,4.5-10.9,9.5-14.1c3.6-2.2,7.9-2.7,11.9-1.2c3.3,1.2,6,3.7,7.4,7c1.4-0.2,2.9,0.3,3.9,1.4c3.3,3.3,2.3,6.7,1.2,9.1&#10;&#9;&#9;c-0.9,2.1-1.9,4.1-2.9,6.1c-1.4,2.8-2.9,5.8-4,8.7c-0.4,1-0.7,2-1,2.9c-0.4,1.9-1.3,3.8-2.4,5.4l0,0&#10;&#9;&#9;C154.5,186,152.6,186.8,150.6,186.7L150.6,186.7z M149,144.6c-2.3,0-4.6,0.7-6.6,1.9c-4.7,2.9-7.9,7.7-8.9,13.1&#10;&#9;&#9;c-1.3,9,2.5,17.9,9.9,23.2c1.8,1.3,3.9,2.2,6.2,2.5c2.4,0.2,4-0.2,5.1-1.6l0,0c1-1.5,1.8-3.1,2.1-4.9c0.3-1,0.6-2,1-3&#10;&#9;&#9;c1.2-3,2.7-6,4.1-8.9c1-2,2-4,2.9-6.1c1.4-3.2,1.1-5.4-0.9-7.5c-0.8-0.9-2-1.2-3.1-0.8c-0.2,0.1-0.4,0.1-0.6,0&#10;&#9;&#9;c-0.2-0.1-0.3-0.2-0.4-0.4c-1.1-3.2-3.6-5.7-6.8-6.8C151.8,144.9,150.4,144.6,149,144.6L149,144.6z"/>
	<path class="st0_team-building-68" d="M162.5,163c0,0,6,5.1,5.5,6.6s-3.6,1.5-3.6,1.5"/>
	<path class="st1_team-building-68" d="M164.4,171.8L164.4,171.8c-0.4,0-0.7-0.3-0.7-0.7c0,0,0,0,0,0c0-0.4,0.3-0.7,0.6-0.7c0,0,0.1,0,0.1,0&#10;&#9;&#9;c0.8,0,2.7-0.2,2.9-1c0.1-0.7-2.4-3.4-5.3-5.9c-0.3-0.3-0.3-0.7-0.1-1s0.7-0.3,1-0.1c2.4,2,6.2,5.6,5.7,7.4&#10;&#9;&#9;C168.1,171.7,165,171.8,164.4,171.8L164.4,171.8z"/>
	<path class="st0_team-building-68" d="M165.8,197.2c-6.7,0.5-18.1-6.2-18.2-6.4c-1.2-4.3-2.2-8.7-3-13.2c0,0,4.5-1.3,5.6-7.4s6.8-7.1,9-15.2&#10;&#9;&#9;c3.3,1.4,3.8,6.2,4.6,9.1c1.2,4.2,2.3,8.4,3.2,12.6c0.6,2.7-6.2,4.7-7.6,4.3C160.5,183.6,162.6,189,165.8,197.2L165.8,197.2z"/>
	<path class="st1_team-building-68" d="M165.1,197.9c-6.8,0-17.9-6-18.1-6.9c-1.2-4.4-2.2-8.8-3-13.3c-0.1-0.4,0.2-0.7,0.5-0.8&#10;&#9;&#9;c0.2-0.1,4.1-1.3,5.1-6.9c0.6-3.2,2.3-5,4.1-7c2.3-2.3,4-5.1,4.9-8.2c0.1-0.2,0.2-0.4,0.4-0.4c0.2-0.1,0.4-0.1,0.6,0&#10;&#9;&#9;c3,1.3,3.9,5,4.6,8c0.1,0.6,0.3,1.1,0.4,1.6c1.2,4.2,2.3,8.4,3.2,12.6c0.2,1-0.2,2-1,2.6c-1.8,1.4-4,2.3-6.3,2.6&#10;&#9;&#9;c1.2,3.1,1.6,4.1,6,15.3c0.1,0.2,0.1,0.4-0.1,0.6c-0.1,0.2-0.3,0.3-0.5,0.3C165.7,197.9,165.4,197.9,165.1,197.9L165.1,197.9z&#10;&#9;&#9; M148.2,190.3c1.2,0.8,10.4,6.1,16.6,6.2c-4.4-11.3-4.5-11.4-6-15.3c-0.1-0.3,0-0.5,0.1-0.7c0.2-0.2,0.5-0.3,0.7-0.2&#10;&#9;&#9;c0.8,0.2,4.5-0.6,6.1-2.2c0.5-0.4,0.7-0.9,0.6-1.3c-1-4.2-2.1-8.4-3.2-12.6c-0.1-0.5-0.3-1.1-0.4-1.7c-0.6-2.4-1.3-5.3-3.1-6.6&#10;&#9;&#9;c-1,3-2.7,5.8-5,8c-1.7,1.9-3.2,3.5-3.7,6.3c-0.9,5.2-4.2,7.1-5.5,7.8C145.7,180,147,186.7,148.2,190.3L148.2,190.3z"/>
	<path class="st0_team-building-68" d="M166.1,173.6c0,0-2.6,2.9-5.3,0.1"/>
	<path class="st1_team-building-68" d="M163.3,175.6c-1.2,0-2.2-0.6-3-1.5c-0.3-0.3-0.3-0.7,0-1s0.7-0.3,1,0c0.5,0.6,1.2,1,2,1&#10;&#9;&#9;c0.9-0.1,1.7-0.5,2.3-1.1c0.3-0.2,0.8-0.1,1,0.2c0.2,0.2,0.2,0.5,0,0.8C165.7,174.9,164.5,175.5,163.3,175.6L163.3,175.6z"/>
	<path class="st1_team-building-68" d="M159.5,180.9c0,0-3.6,0.9-5.9-1.1c0,0,2.1,6.3,8,6.6L159.5,180.9L159.5,180.9z"/>
	<path class="st1_team-building-68" d="M161.6,187.1L161.6,187.1c-6.4-0.3-8.6-6.8-8.7-7.1c-0.1-0.4,0.1-0.8,0.4-0.9c0.2-0.1,0.5,0,0.7,0.1&#10;&#9;&#9;c2.1,1.7,5.3,1,5.3,1c0.3-0.1,0.7,0.1,0.8,0.4l2.1,5.5c0.2,0.3,0,0.8-0.3,0.9C161.9,187.2,161.7,187.2,161.6,187.1L161.6,187.1z&#10;&#9;&#9; M155.1,181.4c1.1,2.1,3.1,3.6,5.4,4.1l-1.5-3.9C157.7,181.9,156.4,181.8,155.1,181.4L155.1,181.4z"/>
	
		<ellipse transform="matrix(0.9775 -0.2108 0.2108 0.9775 -30.4094 37.4617)" class="st1_team-building-68" cx="160.5" cy="161.4" rx="0.6" ry="1.6"/>
	<path class="st0_team-building-68" d="M154.6,167.6c-0.4-1-1.1-1.9-2-2.5c-0.6-0.6-1.3-1.1-2.1-1.4c-0.8-0.4-1.7-0.4-2.4,0c-0.7,0.4-1.1,1-1.3,1.8&#10;&#9;&#9;c-0.1,0.7-0.1,1.5,0.1,2.2c0.8,3.2,3.2,5.8,6.4,6.7l-0.3-0.2"/>
	<path class="st1_team-building-68" d="M153.4,175c-0.1,0-0.1,0-0.2,0c-3.4-1-6.1-3.8-6.9-7.2c-0.2-0.8-0.2-1.7-0.1-2.5c0.2-0.9,0.8-1.8,1.6-2.2&#10;&#9;&#9;c1-0.5,2.1-0.5,3.1,0c0.8,0.4,1.6,0.9,2.2,1.6c1,0.7,1.8,1.7,2.2,2.8c0.1,0.4-0.1,0.8-0.4,0.9c0,0,0,0,0,0&#10;&#9;&#9;c-0.4,0.1-0.8-0.1-0.9-0.5c-0.4-0.9-1-1.6-1.8-2.2c-0.6-0.5-1.2-1-1.9-1.3c-0.6-0.3-1.2-0.3-1.8-0.1c-0.5,0.3-0.8,0.8-0.9,1.3&#10;&#9;&#9;c-0.1,0.6-0.1,1.3,0.1,1.9c0.7,2.8,2.7,5,5.3,6c0.2,0,0.3,0,0.5,0.1l0.3,0.2c0.3,0.2,0.4,0.6,0.2,1&#10;&#9;&#9;C153.8,174.8,153.6,175,153.4,175L153.4,175z"/>
	<path class="st2_team-building-68 targetColor" d="M171,194.5c0,0-19.5-9.9-26.5-3.3s-6.6,28.1-6.9,64l42.2-2.9C179.8,252.3,180.5,199.7,171,194.5L171,194.5z" style="fill: rgb(13, 110, 253);"/>
	<path class="st0_team-building-68" d="M187.7,208.4c2.9,0.1,30.3,3.5,33.2,0.8s8.8-6.6,9.2-5.6s-3.6,5.9-3.6,5.9s8.8-2.8,10.2-1.5s-2.1,7.6-4.2,9.4&#10;&#9;&#9;c-0.6,0.5-6.4,1.7-9.9,2.7c-15.4,4.4-36.2,4.4-42,0.3c-8.1-5.6-30.8-16.5-32.1-18.4s2.6-14.4,12.3-9.1&#10;&#9;&#9;C160.8,193,184.8,208.3,187.7,208.4L187.7,208.4z"/>
	<path class="st1_team-building-68" d="M197.6,224.2c-7.8,0-14.4-1-17.4-3.2c-4.1-2.9-12-7.1-19-10.8c-8-4.3-12.5-6.7-13.3-7.7&#10;&#9;&#9;c-1-1.4,0.1-5.9,2.6-8.8c1.6-1.8,5.1-4.3,10.6-1.3c9.3,5.9,24.6,15.3,26.6,15.4c0.5,0,1.9,0.2,3.7,0.3c6.6,0.6,26.8,2.6,28.9,0.6&#10;&#9;&#9;s8-6.3,9.6-5.9c0.3,0.1,0.6,0.3,0.7,0.6c0.3,0.8-0.5,2.4-2.4,4.9c3.2-0.9,7.6-1.8,8.8-0.6c0.4,0.4,0.6,1,0.5,1.5&#10;&#9;&#9;c-0.1,2.6-3,7.3-4.7,8.8c-0.4,0.4-1.8,0.7-5.4,1.6c-1.6,0.4-3.4,0.8-4.7,1.2C214.6,223,206.2,224.2,197.6,224.2L197.6,224.2z&#10;&#9;&#9; M156.3,192.4c-1.8,0-3.5,0.8-4.7,2.2c-2.4,2.7-2.9,6.4-2.5,7c0.6,0.8,7.1,4.3,12.8,7.3c7,3.8,15,8,19.2,10.9&#10;&#9;&#9;c5.3,3.7,25.4,4.2,41.4-0.4c1.4-0.4,3.1-0.8,4.8-1.2c1.6-0.3,3.3-0.8,4.9-1.4c1.6-1.4,4.1-5.8,4.2-7.8c0-0.2,0-0.4-0.1-0.5&#10;&#9;&#9;c-0.6-0.5-5,0.2-9.5,1.6c-0.3,0.1-0.6,0-0.8-0.3c-0.2-0.3-0.2-0.6,0-0.8c1.2-1.5,2.3-3.1,3.3-4.8c-2.9,1.4-5.5,3.3-7.9,5.4&#10;&#9;&#9;c-2.3,2.1-15.8,1.2-30-0.2c-1.8-0.2-3.2-0.3-3.7-0.3c-3-0.1-24.8-14-27.2-15.6C159.1,192.8,157.7,192.4,156.3,192.4L156.3,192.4z"/>
	<path class="st1_team-building-68" d="M137.6,255.2l-20,49.3c0,0,51.4,17.6,75,13.5l-12.8-65.8L137.6,255.2z"/>
	<path class="st1_team-building-68" d="M184.4,319.4c-25.2,0-65.1-13.5-67-14.2c-0.2-0.1-0.3-0.2-0.4-0.4c-0.1-0.2-0.1-0.4,0-0.5L137,255&#10;&#9;&#9;c0.1-0.2,0.3-0.4,0.6-0.4l42.2-2.9c0.4,0,0.7,0.2,0.7,0.6l12.8,65.8c0,0.2,0,0.4-0.1,0.5c-0.1,0.2-0.3,0.3-0.5,0.3&#10;&#9;&#9;C190,319.3,187.2,319.5,184.4,319.4L184.4,319.4z M118.5,304.1c6.2,2.1,51.3,16.7,73.2,13.4l-12.5-64.5l-41.1,2.9L118.5,304.1&#10;&#9;&#9;L118.5,304.1z"/>
	<path class="st1_team-building-68" d="M156.2,360.5c0,0-3.7,9.9-2.3,10.6s28.3,6.7,28.9,3.4s-13.3-11.7-13.3-11.7L156.2,360.5L156.2,360.5z"/>
	<path class="st1_team-building-68" d="M179.2,376.1c-7.9,0-24.8-4-25.7-4.5c-0.5-0.2-1.9-1,2-11.5c0.1-0.3,0.4-0.5,0.8-0.4l13.3,2.3&#10;&#9;&#9;c0.1,0,0.2,0,0.2,0.1c3.4,2,14.2,9,13.6,12.4c-0.1,0.5-0.4,0.9-0.9,1.1C181.5,376,180.4,376.2,179.2,376.1L179.2,376.1z&#10;&#9;&#9; M154.3,370.5c4.6,1.2,9.2,2.2,13.9,3c12.7,2.2,13.8,0.9,13.9,0.9c0.3-1.7-6.4-6.9-12.9-10.9l-12.6-2.2&#10;&#9;&#9;C155.2,365.1,154,369.5,154.3,370.5L154.3,370.5z M154.3,370.5L154.3,370.5z"/>
	<path class="st0_team-building-68" d="M219.8,171.5c-1.4,0.7-2.3,2.1-2.4,3.6c-0.1,0.5,0,1,0.3,1.4c0.3,0.4,0.9,0.5,1.3,0.2c-1.2,1-1.3,2.7-0.4,3.8&#10;&#9;&#9;c0,0,0,0,0.1,0.1c1.1,1.1,2.7,1.4,4.1,0.9c1.4-0.6,2.5-1.5,3.3-2.8c1.9-2.9,3.4-9.6-0.7-11.4c-1.7-0.8-3.9-0.1-5.3,0.9&#10;&#9;&#9;c-0.8,0.5-2.1,1.2-2,2.3C218,171.2,219,172.4,219.8,171.5L219.8,171.5z"/>
	<path class="st1_team-building-68" d="M221.4,182.4c-1.2,0-2.4-0.5-3.2-1.3c-0.7-0.8-1-1.8-0.8-2.8c0-0.3,0.1-0.7,0.3-1c-0.2-0.1-0.3-0.2-0.4-0.4&#10;&#9;&#9;c-0.4-0.5-0.5-1.2-0.4-1.9c0.1-1.1,0.6-2.2,1.4-3.1c-0.4-0.4-0.7-1-0.7-1.6c-0.1-1.4,1.2-2.2,2.1-2.7l0.3-0.2c1.5-1,4-1.8,6-0.9&#10;&#9;&#9;c1.4,0.6,2.4,1.8,2.8,3.3c0.9,3-0.3,6.9-1.8,9.2c-0.8,1.4-2.1,2.5-3.7,3.1C222.5,182.3,221.9,182.4,221.4,182.4L221.4,182.4z&#10;&#9;&#9; M219.3,177.4c-0.3,0.3-0.5,0.7-0.6,1.1c-0.1,0.6,0.1,1.2,0.5,1.7c0.9,0.9,2.2,1.1,3.3,0.7c1.2-0.5,2.3-1.4,2.9-2.5&#10;&#9;&#9;c1.3-2,2.3-5.6,1.6-8c-0.3-1.1-1-1.9-2-2.4c-1.5-0.7-3.5,0-4.7,0.8l-0.3,0.2c-0.6,0.4-1.4,0.9-1.4,1.5c0,0.3,0.2,0.6,0.4,0.7&#10;&#9;&#9;l0.4-0.2c0.3-0.2,0.8,0,0.9,0.3c0.1,0.3,0.1,0.6-0.1,0.8c-0.2,0.2-0.4,0.4-0.7,0.5c-0.9,0.7-1.4,1.7-1.6,2.8&#10;&#9;&#9;c-0.1,0.3,0,0.6,0.1,0.9c0.1,0.1,0.2,0.1,0.2,0.1h0.1c0.3-0.2,0.7-0.1,0.9,0.1c0.3,0.3,0.2,0.7-0.1,1c0,0,0,0,0,0&#10;&#9;&#9;c0,0-0.1,0.1-0.2,0.1L219.3,177.4z"/>
</g>
</svg>